<svg width="194" height="28" viewBox="0 0 194 28" fill="none" xmlns="http://www.w3.org/2000/svg">
<path d="M4 27.432C2.88 27.432 2.048 27.272 1.504 26.952C0.96 26.6 0.608 26.216 0.448 25.8C0.288 25.384 0.208 25.064 0.208 24.84C0.208 24.424 0.352 24.072 0.64 23.784C0.928 23.496 1.328 23.352 1.84 23.352C2.096 23.352 2.336 23.432 2.56 23.592C2.752 23.72 2.848 23.928 2.848 24.216C2.848 24.536 2.736 24.776 2.512 24.936C2.288 25.064 2.032 25.128 1.744 25.128C1.52 25.128 1.328 25.112 1.168 25.08C1.008 25.016 0.928 24.984 0.928 24.984C0.928 25.4 1.136 25.832 1.552 26.28C1.968 26.696 2.672 26.904 3.664 26.904C5.136 26.904 6.48 26.488 7.696 25.656C8.912 24.792 10.064 23.688 11.152 22.344C12.24 21 13.312 19.56 14.368 18.024C15.424 16.488 16.528 15.016 17.68 13.608C19.216 11.72 20.784 9.96 22.384 8.328C23.984 6.664 25.616 5.24 27.28 4.056C28.944 2.84 30.64 1.992 32.368 1.512C32.624 1.448 32.768 1.496 32.8 1.656C32.832 1.816 32.72 1.928 32.464 1.992C31.088 2.376 29.744 3.112 28.432 4.2C27.12 5.288 25.824 6.616 24.544 8.184C23.296 9.72 22.032 11.368 20.752 13.128C19.504 14.856 18.224 16.568 16.912 18.264C15.632 19.96 14.304 21.496 12.928 22.872C11.552 24.248 10.128 25.352 8.656 26.184C7.184 27.016 5.632 27.432 4 27.432ZM20.992 16.92C19.104 16.92 17.632 16.664 16.576 16.152C15.52 15.64 14.992 14.952 14.992 14.088C14.992 13.64 15.136 13.288 15.424 13.032C15.712 12.744 16.032 12.552 16.384 12.456C16.768 12.328 17.072 12.264 17.296 12.264C17.488 12.264 17.584 12.328 17.584 12.456C17.584 12.552 17.504 12.616 17.344 12.648C16.928 12.712 16.544 12.92 16.192 13.272C15.872 13.592 15.712 13.896 15.712 14.184C15.712 14.6 16.112 15.08 16.912 15.624C17.744 16.168 19.024 16.44 20.752 16.44C21.616 16.44 22.608 16.248 23.728 15.864C24.848 15.448 25.92 14.84 26.944 14.04C28 13.208 28.864 12.2 29.536 11.016C30.208 9.8 30.544 8.392 30.544 6.792C30.544 5 29.744 3.736 28.144 3C26.576 2.232 24.416 1.848 21.664 1.848C19.392 1.848 17.232 2.184 15.184 2.856C13.136 3.528 11.312 4.392 9.712 5.448C8.144 6.504 6.896 7.64 5.968 8.856C5.072 10.072 4.624 11.224 4.624 12.312C4.624 13.4 4.88 14.184 5.392 14.664C5.936 15.144 6.576 15.384 7.312 15.384C8.208 15.384 9.104 15.112 10 14.568C10.928 13.992 11.792 13.272 12.592 12.408C13.392 11.512 14.112 10.584 14.752 9.624C15.392 8.632 15.904 7.72 16.288 6.888C16.672 6.056 16.88 5.416 16.912 4.968C16.944 4.648 17.008 4.488 17.104 4.488C17.232 4.488 17.312 4.6 17.344 4.824C17.44 5.816 17.264 6.952 16.816 8.232C16.4 9.48 15.744 10.696 14.848 11.88C13.984 13.032 12.912 13.992 11.632 14.76C10.352 15.528 8.928 15.912 7.36 15.912C6.368 15.912 5.568 15.608 4.96 15C4.352 14.36 4.048 13.448 4.048 12.264C4.048 11.112 4.512 9.912 5.44 8.664C6.368 7.384 7.648 6.2 9.28 5.112C10.912 4.024 12.784 3.144 14.896 2.472C17.04 1.768 19.296 1.416 21.664 1.416C24.448 1.416 26.64 1.736 28.24 2.376C29.872 3.016 31.024 3.864 31.696 4.92C32.4 5.944 32.752 7.032 32.752 8.184C32.752 9.08 32.448 10.04 31.84 11.064C31.264 12.088 30.448 13.048 29.392 13.944C28.336 14.808 27.088 15.528 25.648 16.104C24.24 16.648 22.688 16.92 20.992 16.92ZM28.375 20.712C28.247 20.84 28.151 20.856 28.087 20.76C28.023 20.632 28.007 20.504 28.039 20.376C28.583 19.832 29.111 19.192 29.623 18.456C30.167 17.72 30.615 17.032 30.967 16.392C31.351 15.752 31.575 15.32 31.639 15.096C31.703 15.096 31.799 15.048 31.927 14.952C32.087 14.856 32.231 14.824 32.359 14.856C32.327 15.08 32.279 15.288 32.215 15.48C32.183 15.672 32.295 15.848 32.551 16.008C32.807 16.168 33.335 16.328 34.135 16.488C34.935 16.648 36.151 16.824 37.783 17.016C37.943 17.048 38.055 17.112 38.119 17.208C38.215 17.272 38.167 17.384 37.975 17.544C37.367 18.024 36.695 18.632 35.959 19.368C35.223 20.104 34.503 20.888 33.799 21.72C33.127 22.52 32.567 23.304 32.119 24.072C31.703 24.84 31.495 25.48 31.495 25.992C31.495 26.568 31.751 26.856 32.263 26.856C32.903 26.856 33.623 26.6 34.423 26.088C35.255 25.576 36.087 24.952 36.919 24.216C37.751 23.448 38.519 22.68 39.223 21.912C39.959 21.112 40.567 20.456 41.047 19.944L41.431 20.232C40.983 20.68 40.407 21.304 39.703 22.104C38.999 22.904 38.199 23.72 37.303 24.552C36.439 25.352 35.511 26.04 34.519 26.616C33.527 27.16 32.503 27.432 31.447 27.432C30.839 27.432 30.295 27.288 29.815 27C29.335 26.744 29.095 26.264 29.095 25.56C29.095 24.888 29.383 24.184 29.959 23.448C30.535 22.712 31.255 21.976 32.119 21.24C32.983 20.472 33.879 19.752 34.807 19.08C35.767 18.376 36.615 17.736 37.351 17.16L37.687 17.592C37.367 17.464 36.807 17.352 36.007 17.256C35.207 17.128 34.375 16.968 33.511 16.776C32.647 16.552 31.895 16.264 31.255 15.912C30.647 15.56 30.343 15.08 30.343 14.472C30.343 14.152 30.471 13.768 30.727 13.32C31.015 12.84 31.399 12.6 31.879 12.6C32.327 12.6 32.631 12.696 32.791 12.888C32.951 13.048 33.031 13.272 33.031 13.56C33.031 13.752 32.871 14.152 32.551 14.76C32.231 15.336 31.831 16.024 31.351 16.824C30.871 17.592 30.359 18.328 29.815 19.032C29.303 19.736 28.823 20.296 28.375 20.712ZM40.0244 27.432C39.5764 27.432 39.0804 27.304 38.5364 27.048C37.9604 26.824 37.6724 26.44 37.6724 25.896C37.6724 25.224 37.9764 24.376 38.5844 23.352C39.1924 22.328 39.9444 21.272 40.8404 20.184C41.7044 19.096 42.5524 18.072 43.3844 17.112C44.2164 16.152 44.8404 15.4 45.2564 14.856C45.6084 14.888 46.0244 14.904 46.5044 14.904C47.0164 14.904 47.4644 14.888 47.8484 14.856C47.4004 15.4 46.8084 16.088 46.0724 16.92C45.3684 17.752 44.6164 18.648 43.8164 19.608C43.0484 20.536 42.2964 21.448 41.5604 22.344C40.8564 23.24 40.2804 24.04 39.8324 24.744C39.3844 25.448 39.1604 25.96 39.1604 26.28C39.1604 26.504 39.2564 26.664 39.4484 26.76C39.6404 26.856 39.9604 26.904 40.4084 26.904C41.1764 26.904 42.0244 26.616 42.9524 26.04C43.9124 25.432 44.8404 24.712 45.7364 23.88C46.6324 23.048 47.4324 22.264 48.1364 21.528C48.8404 20.76 49.3364 20.2 49.6244 19.848L50.0084 20.184C49.7204 20.504 49.2244 21.064 48.5204 21.864C47.8484 22.632 47.0324 23.448 46.0724 24.312C45.1444 25.176 44.1524 25.912 43.0964 26.52C42.0724 27.128 41.0484 27.432 40.0244 27.432ZM49.6244 11.208C49.2404 11.208 48.9524 11.096 48.7604 10.872C48.5684 10.616 48.4724 10.328 48.4724 10.008C48.4724 9.656 48.6644 9.288 49.0484 8.904C49.4324 8.52 49.8324 8.328 50.2484 8.328C50.6964 8.328 51.0164 8.456 51.2084 8.712C51.4004 8.936 51.4964 9.16 51.4964 9.384C51.4964 9.864 51.3044 10.296 50.9204 10.68C50.5364 11.032 50.1044 11.208 49.6244 11.208ZM67.1785 27.432C66.4745 27.432 65.9145 27.288 65.4985 27C65.0825 26.712 64.8745 26.344 64.8745 25.896C64.8745 25.32 65.0985 24.68 65.5465 23.976C65.9945 23.24 66.5385 22.472 67.1785 21.672C67.8505 20.872 68.5065 20.104 69.1465 19.368C69.8185 18.6 70.3785 17.912 70.8265 17.304C71.2745 16.696 71.4985 16.2 71.4985 15.816C71.4985 15.56 71.4345 15.384 71.3065 15.288C71.1785 15.192 70.9545 15.144 70.6345 15.144C70.1545 15.144 69.5145 15.4 68.7145 15.912C67.9465 16.392 67.0825 17.064 66.1225 17.928C65.1945 18.76 64.2345 19.704 63.2425 20.76C62.2825 21.784 61.3545 22.84 60.4585 23.928C59.5625 25.016 58.7945 26.04 58.1545 27C57.7705 26.872 57.3385 26.824 56.8585 26.856C56.3785 26.888 55.8665 26.952 55.3225 27.048C56.0585 26.12 56.8905 25.096 57.8185 23.976C58.7785 22.824 59.6905 21.704 60.5545 20.616C61.4185 19.528 62.1385 18.552 62.7145 17.688C63.2905 16.792 63.5785 16.136 63.5785 15.72C63.5785 15.496 63.4825 15.352 63.2905 15.288C63.1305 15.192 62.8905 15.144 62.5705 15.144C61.8985 15.144 61.0345 15.544 59.9785 16.344C58.9225 17.144 57.8025 18.168 56.6185 19.416C55.4345 20.632 54.2665 21.928 53.1145 23.304C51.9945 24.648 51.0025 25.88 50.1385 27C49.8185 26.904 49.4345 26.856 48.9865 26.856C48.5385 26.824 47.9945 26.888 47.3545 27.048C48.5385 25.288 49.7065 23.624 50.8585 22.056C52.0425 20.456 53.0185 19.08 53.7865 17.928C54.5865 16.776 54.9865 16.008 54.9865 15.624C54.9865 15.528 54.9545 15.464 54.8905 15.432C54.8585 15.368 54.7945 15.336 54.6985 15.336C54.3785 15.336 53.9305 15.64 53.3545 16.248C52.8105 16.856 52.2345 17.544 51.6265 18.312C51.0185 19.08 50.4745 19.736 49.9945 20.28L49.5625 19.992C49.8825 19.64 50.2665 19.176 50.7145 18.6C51.1625 17.992 51.6425 17.4 52.1545 16.824C52.6985 16.216 53.2425 15.704 53.7865 15.288C54.3305 14.872 54.8585 14.664 55.3705 14.664C55.7545 14.664 56.0745 14.776 56.3305 15C56.6185 15.192 56.7625 15.448 56.7625 15.768C56.7625 16.184 56.6345 16.648 56.3785 17.16C56.1225 17.64 55.7705 18.2 55.3225 18.84C54.8745 19.448 54.3625 20.12 53.7865 20.856C53.2425 21.592 52.6665 22.408 52.0585 23.304L52.1545 23.496C52.7945 22.824 53.4505 22.088 54.1225 21.288C54.8265 20.488 55.5465 19.704 56.2825 18.936C57.0185 18.168 57.7545 17.464 58.4905 16.824C59.2265 16.184 59.9785 15.672 60.7465 15.288C61.5145 14.904 62.2665 14.712 63.0025 14.712C63.7705 14.712 64.2985 14.904 64.5865 15.288C64.8745 15.672 65.0185 16.04 65.0185 16.392C65.0185 16.904 64.9225 17.416 64.7305 17.928C64.5385 18.44 64.2985 18.936 64.0105 19.416C63.7225 19.864 63.4345 20.28 63.1465 20.664C62.8585 21.016 62.6025 21.304 62.3785 21.528C62.1545 21.752 62.0265 21.896 61.9945 21.96L61.7065 21.72C61.9305 21.496 62.2825 21.112 62.7625 20.568C63.2425 20.024 63.8025 19.432 64.4425 18.792C65.1145 18.12 65.8185 17.48 66.5545 16.872C67.2905 16.232 68.0265 15.72 68.7625 15.336C69.4985 14.92 70.2025 14.712 70.8745 14.712C71.6745 14.712 72.2185 14.92 72.5065 15.336C72.8265 15.72 72.9865 16.072 72.9865 16.392C72.9865 17.096 72.7625 17.88 72.3145 18.744C71.8665 19.576 71.3065 20.424 70.6345 21.288C69.9625 22.12 69.2905 22.904 68.6185 23.64C67.9465 24.376 67.3865 25 66.9385 25.512C66.4905 25.992 66.2665 26.296 66.2665 26.424C66.2665 26.712 66.6025 26.856 67.2745 26.856C68.1385 26.856 69.0025 26.584 69.8665 26.04C70.7625 25.496 71.6105 24.84 72.4105 24.072C73.2105 23.272 73.9305 22.488 74.5705 21.72C75.2425 20.92 75.7865 20.296 76.2025 19.848L76.5865 20.136C76.2025 20.552 75.6585 21.16 74.9545 21.96C74.2825 22.76 73.5145 23.592 72.6505 24.456C71.7865 25.288 70.8905 25.992 69.9625 26.568C69.0345 27.144 68.1065 27.432 67.1785 27.432ZM78.3029 27.432C76.7989 27.432 75.8069 27.096 75.3269 26.424C74.8469 25.72 74.6069 24.984 74.6069 24.216C74.6069 22.904 74.9429 21.688 75.6149 20.568C76.2869 19.416 77.1509 18.392 78.2069 17.496C79.2629 16.6 80.3509 15.912 81.4709 15.432C82.6229 14.92 83.6469 14.664 84.5429 14.664C85.1829 14.664 85.6949 14.76 86.0789 14.952C86.4629 15.112 86.6549 15.464 86.6549 16.008C86.6549 16.52 86.3509 17.064 85.7429 17.64C85.1349 18.216 84.3669 18.776 83.4389 19.32C82.5109 19.832 81.5349 20.312 80.5109 20.76C79.5189 21.176 78.6069 21.512 77.7749 21.768C76.9429 22.024 76.3349 22.152 75.9509 22.152C75.9509 22.152 75.9509 22.072 75.9509 21.912C75.9509 21.72 75.9509 21.624 75.9509 21.624C76.2389 21.656 76.7349 21.56 77.4389 21.336C78.1749 21.112 78.9909 20.824 79.8869 20.472C80.7829 20.088 81.6469 19.656 82.4789 19.176C83.3429 18.696 84.0469 18.184 84.5909 17.64C85.1669 17.096 85.4549 16.568 85.4549 16.056C85.4549 15.8 85.3749 15.576 85.2149 15.384C85.0869 15.192 84.8469 15.096 84.4949 15.096C83.9829 15.096 83.3589 15.352 82.6229 15.864C81.9189 16.344 81.1989 16.984 80.4629 17.784C79.7269 18.584 79.0389 19.432 78.3989 20.328C77.7589 21.224 77.2309 22.088 76.8149 22.92C76.4309 23.72 76.2389 24.392 76.2389 24.936C76.2389 25.576 76.4309 26.056 76.8149 26.376C77.1989 26.696 77.7589 26.856 78.4949 26.856C79.7749 26.856 80.9749 26.552 82.0949 25.944C83.2469 25.304 84.2869 24.568 85.2149 23.736C86.1429 22.872 86.9269 22.072 87.5669 21.336C88.2069 20.568 88.6389 20.072 88.8629 19.848C88.8629 19.848 88.9109 19.896 89.0069 19.992C89.1349 20.088 89.1989 20.136 89.1989 20.136C88.9749 20.392 88.5429 20.904 87.9029 21.672C87.2629 22.44 86.4629 23.272 85.5029 24.168C84.5429 25.064 83.4549 25.832 82.2389 26.472C81.0229 27.112 79.7109 27.432 78.3029 27.432ZM105.397 27.432C104.181 27.432 103.109 27.192 102.181 26.712C101.253 26.232 100.789 25.592 100.789 24.792C100.789 24.28 100.997 23.896 101.413 23.64C101.829 23.352 102.181 23.208 102.469 23.208C102.757 23.208 102.981 23.288 103.141 23.448C103.333 23.608 103.429 23.8 103.429 24.024C103.429 24.312 103.333 24.552 103.141 24.744C102.917 24.904 102.677 24.984 102.421 24.984C102.133 24.984 101.909 24.952 101.749 24.888C101.589 24.792 101.509 24.744 101.509 24.744C101.509 25 101.589 25.304 101.749 25.656C101.877 26.008 102.229 26.312 102.805 26.568C103.381 26.824 104.277 26.952 105.493 26.952C106.741 26.952 107.957 26.568 109.141 25.8C110.325 25 111.461 24.008 112.549 22.824C113.669 21.608 114.741 20.328 115.765 18.984C116.789 17.64 117.765 16.392 118.693 15.24C119.653 14.088 120.581 13.208 121.477 12.6C121.829 12.344 122.117 12.152 122.341 12.024C122.597 11.864 122.645 11.864 122.485 12.024C122.197 12.312 121.653 12.76 120.853 13.368C120.053 13.976 119.109 14.6 118.021 15.24C116.965 15.88 115.877 16.44 114.757 16.92C113.637 17.368 112.597 17.592 111.637 17.592C110.645 17.592 109.941 17.48 109.525 17.256C109.141 17 108.949 16.424 108.949 15.528C108.949 14.28 109.333 12.968 110.101 11.592C110.901 10.216 111.941 8.888 113.221 7.608C114.533 6.328 115.957 5.176 117.493 4.152C119.029 3.096 120.549 2.264 122.053 1.656C123.557 1.048 124.917 0.743998 126.133 0.743998C127.029 0.743998 127.621 0.903998 127.909 1.224C128.229 1.544 128.389 1.976 128.389 2.52C128.389 3.352 127.941 4.312 127.045 5.4C126.181 6.456 125.013 7.528 123.541 8.616C122.101 9.672 120.469 10.648 118.645 11.544C116.853 12.44 115.029 13.176 113.173 13.752C111.317 14.296 109.557 14.568 107.893 14.568C106.613 14.568 105.605 14.424 104.869 14.136C104.133 13.848 103.685 13.64 103.525 13.512C103.301 13.352 103.237 13.24 103.333 13.176C103.461 13.112 103.589 13.128 103.717 13.224C103.845 13.32 104.245 13.512 104.917 13.8C105.621 14.056 106.613 14.184 107.893 14.184C109.525 14.184 111.253 13.864 113.077 13.224C114.933 12.584 116.725 11.768 118.453 10.776C120.213 9.752 121.813 8.68 123.253 7.56C124.693 6.44 125.829 5.4 126.661 4.44C127.525 3.48 127.957 2.744 127.957 2.232C127.957 1.88 127.781 1.624 127.429 1.464C127.109 1.304 126.773 1.224 126.421 1.224C125.429 1.224 124.357 1.528 123.205 2.136C122.053 2.712 120.869 3.48 119.653 4.44C118.469 5.4 117.317 6.456 116.197 7.608C115.109 8.728 114.133 9.848 113.269 10.968C112.405 12.056 111.717 13.032 111.205 13.896C110.693 14.76 110.437 15.416 110.437 15.864C110.437 16.28 110.549 16.6 110.773 16.824C111.029 17.016 111.381 17.112 111.829 17.112C112.789 17.112 113.813 16.872 114.901 16.392C116.021 15.912 117.125 15.32 118.213 14.616C119.333 13.88 120.373 13.16 121.333 12.456C122.325 11.72 123.157 11.096 123.829 10.584C124.501 10.072 124.949 9.784 125.173 9.72C125.525 9.624 125.765 9.624 125.893 9.72C126.053 9.784 126.005 9.896 125.749 10.056C125.013 10.472 124.245 11.176 123.445 12.168C122.645 13.16 121.797 14.312 120.901 15.624C120.005 16.936 119.029 18.28 117.973 19.656C116.917 21.032 115.765 22.312 114.517 23.496C113.269 24.68 111.893 25.64 110.389 26.376C108.885 27.08 107.221 27.432 105.397 27.432ZM124.703 20.712C124.575 20.84 124.479 20.856 124.415 20.76C124.351 20.632 124.335 20.504 124.367 20.376C124.911 19.832 125.439 19.192 125.951 18.456C126.495 17.72 126.943 17.032 127.295 16.392C127.679 15.752 127.903 15.32 127.967 15.096C128.031 15.096 128.127 15.048 128.255 14.952C128.415 14.856 128.559 14.824 128.687 14.856C128.655 15.08 128.607 15.288 128.543 15.48C128.511 15.672 128.623 15.848 128.879 16.008C129.135 16.168 129.663 16.328 130.463 16.488C131.263 16.648 132.479 16.824 134.111 17.016C134.271 17.048 134.383 17.112 134.447 17.208C134.543 17.272 134.495 17.384 134.303 17.544C133.695 18.024 133.023 18.632 132.287 19.368C131.551 20.104 130.831 20.888 130.127 21.72C129.455 22.52 128.895 23.304 128.447 24.072C128.031 24.84 127.823 25.48 127.823 25.992C127.823 26.568 128.079 26.856 128.591 26.856C129.231 26.856 129.951 26.6 130.751 26.088C131.583 25.576 132.415 24.952 133.247 24.216C134.079 23.448 134.847 22.68 135.551 21.912C136.287 21.112 136.895 20.456 137.375 19.944L137.759 20.232C137.311 20.68 136.735 21.304 136.031 22.104C135.327 22.904 134.527 23.72 133.631 24.552C132.767 25.352 131.839 26.04 130.847 26.616C129.855 27.16 128.831 27.432 127.775 27.432C127.167 27.432 126.623 27.288 126.143 27C125.663 26.744 125.423 26.264 125.423 25.56C125.423 24.888 125.711 24.184 126.287 23.448C126.863 22.712 127.583 21.976 128.447 21.24C129.311 20.472 130.207 19.752 131.135 19.08C132.095 18.376 132.943 17.736 133.679 17.16L134.015 17.592C133.695 17.464 133.135 17.352 132.335 17.256C131.535 17.128 130.703 16.968 129.839 16.776C128.975 16.552 128.223 16.264 127.583 15.912C126.975 15.56 126.671 15.08 126.671 14.472C126.671 14.152 126.799 13.768 127.055 13.32C127.343 12.84 127.727 12.6 128.207 12.6C128.655 12.6 128.959 12.696 129.119 12.888C129.279 13.048 129.359 13.272 129.359 13.56C129.359 13.752 129.199 14.152 128.879 14.76C128.559 15.336 128.159 16.024 127.679 16.824C127.199 17.592 126.687 18.328 126.143 19.032C125.631 19.736 125.151 20.296 124.703 20.712ZM145.617 14.76C147.217 14.76 148.017 15.528 148.017 17.064C148.017 18.248 147.745 19.464 147.201 20.712C146.657 21.928 145.921 23.048 144.993 24.072C144.065 25.064 143.057 25.88 141.969 26.52C140.881 27.128 139.777 27.432 138.657 27.432C137.793 27.432 137.072 27.224 136.496 26.808C135.888 26.36 135.584 25.64 135.584 24.648C135.584 23.72 135.856 22.696 136.4 21.576C136.944 20.424 137.681 19.336 138.609 18.312C139.569 17.288 140.641 16.44 141.825 15.768C143.041 15.096 144.305 14.76 145.617 14.76ZM146.145 15.432C145.601 15.432 144.961 15.672 144.225 16.152C143.489 16.632 142.737 17.256 141.969 18.024C141.201 18.792 140.481 19.624 139.809 20.52C139.169 21.384 138.641 22.232 138.225 23.064C137.841 23.896 137.649 24.6 137.649 25.176C137.649 25.816 137.825 26.264 138.177 26.52C138.529 26.744 138.929 26.856 139.377 26.856C140.113 26.856 140.945 26.552 141.873 25.944C142.801 25.304 143.697 24.504 144.561 23.544C145.425 22.584 146.129 21.576 146.673 20.52C147.249 19.432 147.537 18.44 147.537 17.544C147.537 16.712 147.393 16.152 147.105 15.864C146.817 15.576 146.497 15.432 146.145 15.432ZM147.009 20.376C147.169 20.376 147.233 20.44 147.201 20.568C147.201 20.664 147.121 20.712 146.961 20.712C146.833 20.712 146.641 20.888 146.385 21.24C146.161 21.56 145.953 21.896 145.761 22.248C145.569 22.6 145.473 22.792 145.473 22.824C145.473 23.56 145.745 23.928 146.289 23.928C146.801 23.928 147.377 23.688 148.017 23.208C148.689 22.728 149.329 22.184 149.937 21.576C150.577 20.936 151.089 20.376 151.473 19.896L151.857 20.232C151.441 20.712 150.913 21.288 150.273 21.96C149.633 22.6 148.961 23.176 148.257 23.688C147.553 24.168 146.897 24.408 146.289 24.408C145.777 24.408 145.425 24.296 145.233 24.072C145.041 23.848 144.945 23.448 144.945 22.872C144.945 22.104 145.201 21.496 145.713 21.048C146.257 20.6 146.689 20.376 147.009 20.376ZM159.726 14.76C161.326 14.76 162.126 15.528 162.126 17.064C162.126 18.248 161.854 19.464 161.31 20.712C160.766 21.928 160.03 23.048 159.102 24.072C158.174 25.064 157.166 25.88 156.078 26.52C154.99 27.128 153.886 27.432 152.766 27.432C151.902 27.432 151.182 27.224 150.606 26.808C149.998 26.36 149.694 25.64 149.694 24.648C149.694 23.72 149.966 22.696 150.51 21.576C151.054 20.424 151.79 19.336 152.718 18.312C153.678 17.288 154.75 16.44 155.934 15.768C157.15 15.096 158.414 14.76 159.726 14.76ZM160.254 15.432C159.71 15.432 159.07 15.672 158.334 16.152C157.598 16.632 156.846 17.256 156.078 18.024C155.31 18.792 154.59 19.624 153.918 20.52C153.278 21.384 152.75 22.232 152.334 23.064C151.95 23.896 151.758 24.6 151.758 25.176C151.758 25.816 151.934 26.264 152.286 26.52C152.638 26.744 153.038 26.856 153.486 26.856C154.222 26.856 155.054 26.552 155.982 25.944C156.91 25.304 157.806 24.504 158.67 23.544C159.534 22.584 160.238 21.576 160.782 20.52C161.358 19.432 161.646 18.44 161.646 17.544C161.646 16.712 161.502 16.152 161.214 15.864C160.926 15.576 160.606 15.432 160.254 15.432ZM161.118 20.376C161.278 20.376 161.342 20.44 161.31 20.568C161.31 20.664 161.23 20.712 161.07 20.712C160.942 20.712 160.75 20.888 160.494 21.24C160.27 21.56 160.062 21.896 159.87 22.248C159.678 22.6 159.582 22.792 159.582 22.824C159.582 23.56 159.854 23.928 160.398 23.928C160.91 23.928 161.486 23.688 162.126 23.208C162.798 22.728 163.438 22.184 164.046 21.576C164.686 20.936 165.198 20.376 165.582 19.896L165.966 20.232C165.55 20.712 165.022 21.288 164.382 21.96C163.742 22.6 163.07 23.176 162.366 23.688C161.662 24.168 161.006 24.408 160.398 24.408C159.886 24.408 159.534 24.296 159.342 24.072C159.15 23.848 159.054 23.448 159.054 22.872C159.054 22.104 159.31 21.496 159.822 21.048C160.366 20.6 160.798 20.376 161.118 20.376ZM170.283 14.856C170.603 14.888 171.035 14.936 171.579 15C172.155 15.032 172.699 15 173.211 14.904C172.699 15.448 172.043 16.136 171.243 16.968C170.443 17.768 169.579 18.616 168.651 19.512C167.755 20.408 166.907 21.288 166.107 22.152C165.339 23.016 164.699 23.784 164.187 24.456C163.675 25.128 163.419 25.64 163.419 25.992C163.419 26.312 163.515 26.552 163.707 26.712C163.899 26.872 164.235 26.952 164.715 26.952C165.227 26.952 165.931 26.76 166.827 26.376C167.755 25.992 168.747 25.48 169.803 24.84C170.859 24.2 171.883 23.48 172.875 22.68C173.867 21.848 174.699 21 175.371 20.136C176.075 19.24 176.491 18.36 176.619 17.496C176.715 16.92 176.763 16.328 176.763 15.72C176.763 15.368 176.907 15.048 177.195 14.76C177.515 14.44 177.835 14.28 178.155 14.28C178.859 14.28 179.211 14.696 179.211 15.528C179.211 16.264 178.843 17.144 178.107 18.168C177.403 19.192 176.459 20.248 175.275 21.336C174.123 22.392 172.859 23.384 171.483 24.312C170.139 25.24 168.811 25.992 167.499 26.568C166.219 27.144 165.099 27.432 164.139 27.432C163.563 27.432 163.099 27.288 162.747 27C162.363 26.712 162.171 26.296 162.171 25.752C162.171 25.144 162.427 24.408 162.939 23.544C163.451 22.68 164.107 21.768 164.907 20.808C165.675 19.848 166.443 18.936 167.211 18.072C168.011 17.208 168.699 16.488 169.275 15.912C169.851 15.336 170.187 14.984 170.283 14.856ZM174.987 20.952L175.371 21.24C175.051 21.528 174.779 21.832 174.555 22.152C174.363 22.44 174.267 22.76 174.267 23.112C174.267 23.624 174.571 23.88 175.179 23.88C175.755 23.88 176.363 23.64 177.003 23.16C177.675 22.68 178.331 22.12 178.971 21.48C179.611 20.84 180.155 20.312 180.603 19.896L180.987 20.184C180.539 20.664 179.979 21.24 179.307 21.912C178.667 22.552 177.979 23.112 177.243 23.592C176.507 24.072 175.819 24.312 175.179 24.312C174.251 24.312 173.787 23.928 173.787 23.16C173.787 22.712 173.867 22.36 174.027 22.104C174.187 21.816 174.507 21.432 174.987 20.952ZM182.834 27.432C181.33 27.432 180.338 27.096 179.858 26.424C179.378 25.72 179.138 24.984 179.138 24.216C179.138 22.904 179.474 21.688 180.146 20.568C180.818 19.416 181.682 18.392 182.738 17.496C183.794 16.6 184.882 15.912 186.002 15.432C187.154 14.92 188.178 14.664 189.074 14.664C189.714 14.664 190.226 14.76 190.61 14.952C190.994 15.112 191.186 15.464 191.186 16.008C191.186 16.52 190.882 17.064 190.274 17.64C189.666 18.216 188.898 18.776 187.97 19.32C187.042 19.832 186.066 20.312 185.042 20.76C184.05 21.176 183.138 21.512 182.306 21.768C181.474 22.024 180.866 22.152 180.482 22.152C180.482 22.152 180.482 22.072 180.482 21.912C180.482 21.72 180.482 21.624 180.482 21.624C180.77 21.656 181.266 21.56 181.97 21.336C182.706 21.112 183.522 20.824 184.418 20.472C185.314 20.088 186.178 19.656 187.01 19.176C187.874 18.696 188.578 18.184 189.122 17.64C189.698 17.096 189.986 16.568 189.986 16.056C189.986 15.8 189.906 15.576 189.746 15.384C189.618 15.192 189.378 15.096 189.026 15.096C188.514 15.096 187.89 15.352 187.154 15.864C186.45 16.344 185.73 16.984 184.994 17.784C184.258 18.584 183.57 19.432 182.93 20.328C182.29 21.224 181.762 22.088 181.346 22.92C180.962 23.72 180.77 24.392 180.77 24.936C180.77 25.576 180.962 26.056 181.346 26.376C181.73 26.696 182.29 26.856 183.026 26.856C184.306 26.856 185.506 26.552 186.626 25.944C187.778 25.304 188.818 24.568 189.746 23.736C190.674 22.872 191.458 22.072 192.098 21.336C192.738 20.568 193.17 20.072 193.394 19.848C193.394 19.848 193.442 19.896 193.538 19.992C193.666 20.088 193.73 20.136 193.73 20.136C193.506 20.392 193.074 20.904 192.434 21.672C191.794 22.44 190.994 23.272 190.034 24.168C189.074 25.064 187.986 25.832 186.77 26.472C185.554 27.112 184.242 27.432 182.834 27.432Z" fill="#56514A"/>
</svg>
